<svg id="logo" data-name="logo" xmlns="http://www.w3.org/2000/svg" viewBox="0 0 69.29 11.44"><defs><style>.cls-1{fill:var(--color-text);}</style></defs><path class="cls-1" d="M23.32,8.81a1.07,1.07,0,0,1-.24.65.78.78,0,0,1-.66.34,1.1,1.1,0,0,1-.54-.15,4.05,4.05,0,0,0-1.7-.36,3.81,3.81,0,0,0-1.95.47A3.16,3.16,0,0,0,17,11.09a4.14,4.14,0,0,0-.45,2,3.77,3.77,0,0,0,1,2.86,3.67,3.67,0,0,0,2.66,1,3.77,3.77,0,0,0,1.7-.37,1.2,1.2,0,0,1,.51-.13.88.88,0,0,1,.7.35,1.05,1.05,0,0,1,.24.66.82.82,0,0,1-.13.46.75.75,0,0,1-.36.32,5.85,5.85,0,0,1-2.66.63,6.3,6.3,0,0,1-2.88-.67,5.08,5.08,0,0,1-2.1-2,6,6,0,0,1-.78-3.13,5.82,5.82,0,0,1,.74-2.93,5.36,5.36,0,0,1,2.06-2,6,6,0,0,1,3-.72A5.64,5.64,0,0,1,22.82,8,.86.86,0,0,1,23.32,8.81Z" transform="translate(-14.42 -7.37)"/><path class="cls-1" d="M33.64,7.7a1,1,0,0,1,.25.71V14.2a4.86,4.86,0,0,1-.56,2.35,4,4,0,0,1-1.57,1.6,4.87,4.87,0,0,1-4.61,0,4,4,0,0,1-1.58-1.6A4.86,4.86,0,0,1,25,14.2V8.41a1,1,0,0,1,.29-.7A1,1,0,0,1,26,7.43a.92.92,0,0,1,.67.28,1,1,0,0,1,.29.7V14.2a2.8,2.8,0,0,0,.33,1.37,2.42,2.42,0,0,0,2.13,1.24,2.74,2.74,0,0,0,1.29-.32,2.49,2.49,0,0,0,1-.92,2.62,2.62,0,0,0,.36-1.37V8.41a1,1,0,0,1,.24-.71A.83.83,0,0,1,33,7.43.91.91,0,0,1,33.64,7.7Z" transform="translate(-14.42 -7.37)"/><path class="cls-1" d="M38.29,9.29V12.1h3.46a1,1,0,0,1,.69.27.87.87,0,0,1,.28.68.83.83,0,0,1-.28.62,1,1,0,0,1-.69.27H38.29v3.73a1,1,0,0,1-.29.7,1,1,0,0,1-.7.28,1,1,0,0,1-.73-.28,1,1,0,0,1-.28-.7V8.42a1,1,0,0,1,.28-.69.94.94,0,0,1,.7-.28h5.2a.93.93,0,0,1,.69.26.88.88,0,0,1,.28.68.83.83,0,0,1-.28.62.9.9,0,0,1-.69.28Z" transform="translate(-14.42 -7.37)"/><path class="cls-1" d="M52.53,16.67A4.11,4.11,0,0,1,51,18.25a4.62,4.62,0,0,1-4.41,0A4.11,4.11,0,0,1,45,16.67a4.83,4.83,0,0,1,0-4.59,4.14,4.14,0,0,1,1.57-1.59,4.62,4.62,0,0,1,4.41,0,4.14,4.14,0,0,1,1.57,1.59,4.51,4.51,0,0,1,.58,2.29A4.52,4.52,0,0,1,52.53,16.67ZM50.86,13A2.45,2.45,0,0,0,50,12a2.44,2.44,0,0,0-2.45,0,2.45,2.45,0,0,0-.88,1,3.13,3.13,0,0,0,0,2.8,2.42,2.42,0,0,0,.88.94,2.38,2.38,0,0,0,2.45,0,2.42,2.42,0,0,0,.88-.94,3.13,3.13,0,0,0,0-2.8Z" transform="translate(-14.42 -7.37)"/><path class="cls-1" d="M60,10.2a.8.8,0,0,1,.33.64,1,1,0,0,1-.25.74.84.84,0,0,1-.61.25,1.78,1.78,0,0,1-.55-.11l-.21-.07a1.42,1.42,0,0,0-.36,0,1.4,1.4,0,0,0-.8.25,1.79,1.79,0,0,0-.63.78,2.8,2.8,0,0,0-.25,1.24v3.79a1,1,0,0,1-.27.7,1,1,0,0,1-.69.28.94.94,0,0,1-.69-.28,1,1,0,0,1-.27-.7V11.06a1,1,0,0,1,.27-.69.9.9,0,0,1,.69-.28.92.92,0,0,1,.69.28,1,1,0,0,1,.27.69v.21a2.36,2.36,0,0,1,1-1,3.25,3.25,0,0,1,1.48-.34A1.23,1.23,0,0,1,60,10.2Z" transform="translate(-14.42 -7.37)"/><path class="cls-1" d="M68.69,10.37a1,1,0,0,1,.27.69v4.07a3.68,3.68,0,0,1-.95,2.7,3.61,3.61,0,0,1-2.71,1,3.57,3.57,0,0,1-2.7-1,3.72,3.72,0,0,1-1-2.7V11.06a1,1,0,0,1,.27-.69,1,1,0,0,1,1.38,0,1,1,0,0,1,.27.69v4.07A2,2,0,0,0,64,16.57a2,2,0,0,0,2.61,0A2,2,0,0,0,67,15.13V11.06a.92.92,0,0,1,.28-.69,1,1,0,0,1,1.37,0Z" transform="translate(-14.42 -7.37)"/><path class="cls-1" d="M83.11,10.89a5.09,5.09,0,0,1,.6,2.68v4.1a1,1,0,0,1-.27.7,1,1,0,0,1-1.37,0,1,1,0,0,1-.28-.7v-4.1a2.43,2.43,0,0,0-.34-1.38,1.35,1.35,0,0,0-1.21-.5,1.87,1.87,0,0,0-1.4.53,1.93,1.93,0,0,0-.5,1.35v4.1a1,1,0,0,1-.27.7,1,1,0,0,1-1.38,0,1,1,0,0,1-.27-.7v-4.1a2.51,2.51,0,0,0-.34-1.38,1.36,1.36,0,0,0-1.21-.5,1.84,1.84,0,0,0-1.4.53A1.89,1.89,0,0,0,73,13.57v4.1a1,1,0,0,1-.27.7.94.94,0,0,1-.69.28.94.94,0,0,1-1-1V11.06a1,1,0,0,1,.27-.69.94.94,0,0,1,.69-.28.9.9,0,0,1,.69.28,1,1,0,0,1,.27.69v.26a4,4,0,0,1,1.1-1,2.79,2.79,0,0,1,1.48-.4,2.43,2.43,0,0,1,2.58,1.76,3.62,3.62,0,0,1,1.11-1.22,2.79,2.79,0,0,1,1.69-.54A2.4,2.4,0,0,1,83.11,10.89Z" transform="translate(-14.42 -7.37)"/></svg>